# Exported from Wings 3D 1.2.rc2
mtllib pinetree.mtl
o unnamed_object1
#171 vertices, 113 faces
v 5.2656000e-2 -5.1560000e-3 4.7031000e-2
v 2.5156000e-2 0.24390600 2.3906000e-2
v -1.6875000e-2 0.24390600 2.3906000e-2
v -5.1560000e-3 -5.1560000e-3 6.1406000e-2
v 4.1094000e-2 0.59296900 3.7969000e-2
v 6.2500000e-3 0.59296900 3.7969000e-2
v 1.9687000e-2 0.86218800 1.4062000e-2
v -1.1406000e-2 0.86218800 1.4062000e-2
v 1.2031000e-2 1.06140600 4.8440000e-3
v -3.7500000e-3 1.06140600 4.8440000e-3
v 4.0781000e-2 1.09656300 0.30906200
v -1.4060000e-3 1.42500000 8.2810000e-3
v -4.8440000e-3 0.96500000 -2.0000000e-2
v -0.22718700 1.19000000 -3.0781000e-2
v 1.1250000e-2 0.24500000 -0.41515600
v -0.51078100 0.44500000 -0.38500000
v 4.6900000e-4 0.30500000 -9.3750000e-3
v -0.39375000 0.28000000 0.17046900
v -0.44375000 0.32000000 1.8281000e-2
v -0.25859400 0.48000000 0.49046900
v 6.8750000e-3 0.37500000 -9.3800000e-4
v 0.20187500 0.31500000 0.45343700
v 6.8750000e-3 0.26500000 0.42140600
v 0.45890600 0.37000000 0.43640600
v 2.2500000e-2 0.27000000 5.7810000e-3
v 0.46687500 0.19500000 5.0625000e-2
v 0.49125000 0.26000000 -5.1250000e-2
v 0.35609400 0.52500000 -0.41343800
v 5.4690000e-3 0.37500000 -1.8750000e-3
v -0.17437500 0.31500000 -0.41640600
v 0.25859400 0.28500000 0.34812500
v 0.55734400 0.52000000 5.2969000e-2
v 2.5000000e-2 0.40500000 9.3700000e-4
v 0.31984400 0.35000000 -0.31218800
v 0.40250000 0.40000000 -0.17687500
v 5.2344000e-2 0.59000000 -0.47562500
v 1.5156000e-2 0.47500000 -3.1250000e-3
v -0.31281300 0.32500000 -0.25312500
v -0.19015600 0.29500000 -0.36859400
v -0.48390600 0.53000000 -4.8281000e-2
v -1.5620000e-3 0.37000000 -1.2500000e-3
v -0.32640600 0.35000000 0.30171900
v -0.33031200 0.51000000 0.20546900
v 4.8440000e-3 0.54000000 0.47921900
v 1.6875000e-2 0.47500000 -2.9690000e-3
v 0.31000000 0.36500000 0.18671900
v 0.29437500 0.65500000 8.0000000e-2
v 0.34937500 0.87000000 -0.26000000
v 1.4375000e-2 0.76000000 -5.0000000e-3
v 6.9375000e-2 0.69000000 -0.31000000
v 0.10437500 0.71500000 -0.29500000
v -0.23062500 0.93500000 -0.27500000
v 4.3750000e-3 0.83000000 5.0000000e-3
v -0.27562500 0.71500000 7.5000000e-2
v -0.29562500 0.73000000 -2.5000000e-2
v -0.26062500 0.82000000 0.29000000
v -5.6250000e-3 0.72000000 1.5000000e-2
v 8.9375000e-2 0.67000000 0.28000000
v -8.5625000e-2 0.75000000 0.34500000
v 0.27437500 0.91000000 0.27500000
v 4.3750000e-3 0.83000000 5.0000000e-3
v 0.28937500 0.73000000 -3.0000000e-2
v 0.29921900 0.16000000 0.39562500
v 0.53000000 0.24500000 0.0000000e+0
v 2.0156000e-2 0.18000000 0.0000000e+0
v 0.20093700 5.0000000e-2 -0.25234400
v 0.39578100 0.19000000 -0.31750000
v 1.0000000e-2 0.33500000 -0.56812500
v 1.0000000e-2 0.25000000 -3.2810000e-3
v -0.39218800 0.19500000 -0.26406200
v -0.32062500 9.5000000e-2 -0.43562500
v -0.56640600 0.28500000 4.8440000e-3
v -6.5620000e-3 0.14500000 0.0000000e+0
v -0.23234400 0.11500000 0.40234400
v -0.37390600 0.20000000 0.26078100
v 1.1719000e-2 0.36000000 0.60656200
v 1.1719000e-2 0.25000000 -3.1250000e-3
v 0.34421900 5.0000000e-2 0.25750000
v 0.36671900 0.49500000 -0.12750000
v 0.18515600 0.75500000 -0.42796900
v 5.6250000e-3 0.63000000 -1.1406000e-2
v -0.20312500 0.63000000 -0.26421900
v -0.12859400 0.62500000 -0.25546900
v -0.40609400 0.86000000 -0.13218800
v -7.8100000e-4 0.70000000 -3.1250000e-3
v -0.30078100 0.61000000 0.17921900
v -0.29562500 0.58000000 0.16140600
v -8.3281000e-2 0.74000000 0.37875000
v -3.2810000e-3 0.59500000 1.3594000e-2
v 0.20046900 0.62000000 0.25625000
v 0.10250000 0.63500000 0.31734400
v 0.39015600 0.83500000 0.16906200
v -1.5600000e-4 0.70000000 -4.6880000e-3
v 0.37359400 0.66500000 -0.12546900
v -8.8437000e-2 1.17000000 -0.27703100
v -1.7190000e-3 1.42828100 5.6250000e-3
v -1.2500000e-3 0.94500000 -1.2969000e-2
v 0.19890600 1.22328100 -0.13546900
v 0.22796900 0.77000000 4.4375000e-2
v 0.22875000 0.98500000 -0.17062500
v 1.8750000e-2 0.87500000 -7.5000000e-3
v -1.3281000e-2 0.80500000 -0.22531300
v 0.12375000 0.83000000 -0.19750000
v -0.18109400 1.05000000 -0.20250000
v 8.7500000e-3 0.94500000 2.3440000e-3
v -0.21109400 0.83000000 6.2344000e-2
v -0.22281200 0.84500000 -3.9375000e-2
v -0.18296900 0.93500000 0.20484400
v -1.0940000e-3 0.83500000 1.2344000e-2
v 4.6563000e-2 0.78500000 0.22078100
v -1.9844000e-2 0.86500000 0.23859400
v 0.19390600 1.02500000 0.17328100
v 0.23250000 0.84500000 -5.6094000e-2
v 0.19468800 0.86500000 -0.11687500
v 4.3125000e-2 1.08000000 -0.26953100
v 9.8440000e-3 0.97000000 -5.6250000e-3
v -0.18171900 0.90000000 -0.13687500
v -0.17500000 1.01500000 -7.4219000e-2
v -0.19421900 1.15000000 0.16265600
v 9.8440000e-3 1.04000000 8.2810000e-3
v -0.10312500 0.92500000 0.20625000
v -0.17828100 0.93500000 0.14250000
v 1.7344000e-2 1.03000000 0.28718700
v 9.8440000e-3 0.93000000 2.2500000e-2
v 0.19109400 0.88000000 0.13593700
v 0.11671900 0.99000000 0.19562500
v 0.23671900 1.20500000 -1.5630000e-3
v 0.13171900 0.92000000 -0.19109400
v 0.42109400 0.44000000 0.14468700
v 0.46156200 0.59000000 -0.27828100
v 9.5310000e-3 0.52000000 -5.7810000e-3
v 4.4062000e-2 0.48500000 -0.30968800
v 0.13968700 0.60500000 -0.36031300
v -0.25828100 0.71000000 -0.42578100
v -7.8100000e-4 0.59000000 -3.7500000e-3
v -0.39968700 0.55000000 -8.3281000e-2
v -0.30015600 0.51000000 -0.13812500
v -0.40578100 0.69500000 0.26484400
v -1.3594000e-2 0.48500000 7.5000000e-3
v -8.1250000e-3 0.49500000 0.37640600
v -0.14000000 0.52500000 0.36703100
v 0.25796900 0.71500000 0.47750000
v 6.2500000e-4 0.59000000 -4.3750000e-3
v 0.40453100 0.47500000 0.14500000
v 0.12671900 0.66500000 0.32437500
v 0.45781200 0.69000000 0.16250000
v 1.5000000e-2 0.60500000 0.0000000e+0
v 0.29171900 0.49000000 -0.15328100
v 2.3594000e-2 -5.1560000e-3 -4.7656000e-2
v 3.8281000e-2 0.24390600 -1.6094000e-2
v 7.7656000e-2 -5.1560000e-3 6.4060000e-3
v 4.0620000e-3 0.24390600 -4.0938000e-2
v 2.3750000e-2 0.59296900 -1.5469000e-2
v 5.1875000e-2 0.59296900 4.8440000e-3
v 4.0620000e-3 0.86218800 -3.3906000e-2
v 2.9375000e-2 0.86218800 -1.5469000e-2
v 4.0620000e-3 1.06140600 -1.9688000e-2
v 1.7031000e-2 1.06140600 -1.0313000e-2
v 1.2031000e-2 1.06140600 4.8440000e-3
v -3.7344000e-2 -5.1560000e-3 6.4060000e-3
v -3.0000000e-2 0.24390600 -1.6094000e-2
v -8.4370000e-3 0.59296900 4.8440000e-3
v -2.1094000e-2 0.86218800 -1.5469000e-2
v -8.7500000e-3 1.06140600 -1.0313000e-2
v 1.7031000e-2 1.06140600 -1.0313000e-2
v 4.0620000e-3 1.06140600 -1.9688000e-2
v -8.7500000e-3 1.06140600 -1.0313000e-2
v -3.7500000e-3 1.06140600 4.8440000e-3
v 8.7500000e-3 0.94500000 2.3440000e-3
v 9.8440000e-3 1.04000000 8.2810000e-3
v 1.2031000e-2 1.06140600 4.8440000e-3
vt -1.5370000e-3 0.99891000
vt 0.0000000e+0 1.00000000
vt 2.0500000e-4 -1.0880000e-3
vt 0.26953100 -0.79124300
vt 0.28515600 -1.13281200
vt 0.32074000 5.6399000e-2
vt 0.33051300 -1.13281200
vt 0.34024800 -1.13281200
vt 0.35927700 -0.32028400
vt 0.38684300 -0.31258800
vt 0.38707800 0.52134500
vt 0.39319800 -0.79444800
vt 0.42493000 0.50582400
vt 0.43553900 4.5240000e-2
vt 0.49580800 -1.13281200
vt 0.50556300 -0.32028400
vt 0.51855300 0.50582400
vt 0.52557700 5.6399000e-2
vt 0.55094700 0.52134500
vt 0.55256800 4.5240000e-2
vt 0.56874100 -0.79444800
vt 0.57641500 0.50582400
vt 0.57678600 -0.79124300
vt 0.59597200 -0.32028400
vt 0.62489500 4.5240000e-2
vt 0.64288900 -0.31258800
vt 0.67723200 -0.79444800
vt 0.69921900 -1.13281200
vt 0.70312500 -1.13281200
vt 0.99846200 1.00065200
vt 1.00020400 6.5300000e-4
vn 0.57993571 0.16085314 0.79862434
vn 0.58536356 3.9948490e-2 0.80978616
vn -0.53005609 5.2945000e-2 0.84630808
vn -0.38951756 0.11917948 0.91327560
vn 0.58654408 2.9411084e-2 0.80938311
vn -0.54564509 2.0436371e-2 0.83776715
vn 0.58408075 8.8883065e-2 0.80681440
vn -0.57577598 4.9891557e-2 0.81608385
vn 0.0000000e+0 4.6221466e-2 0.99893122
vn -0.58485198 5.9905713e-2 0.80892489
vn -0.99046560 -1.0666563e-3 0.13775618
vn -0.69684557 -3.8822263e-2 0.71616973
vn -0.69684557 -3.8822263e-2 0.71616973
vn -0.10901705 -6.0187094e-2 0.99221610
vn 0.34835779 0.92857468 -0.12804650
vn 0.21228955 0.97438382 7.4224829e-2
vn 0.21228955 0.97438382 7.4224829e-2
vn 6.3159827e-2 0.96024230 0.27192934
vn -0.12801471 0.95348987 -0.27289064
vn 0.10774920 0.98253132 -0.15173108
vn 0.10774920 0.98253132 -0.15173108
vn 0.33585132 0.94170726 -1.9782275e-2
vn -0.22636088 0.97403822 3.2079457e-3
vn -1.8138067e-2 0.97781426 -0.20868706
vn -1.8138067e-2 0.97781426 -0.20868706
vn 0.19168580 0.89527815 -0.40216115
vn 0.24687710 0.82366364 0.51051924
vn -6.5978283e-2 0.95426624 0.29158671
vn -6.5978283e-2 0.95426624 0.29158671
vn -0.36808799 0.92945037 2.5164326e-2
vn -0.23033203 0.86139973 0.45270041
vn -0.21719682 0.97358915 7.0354211e-2
vn -0.21719682 0.97358915 7.0354211e-2
vn -0.16953868 0.93102889 -0.32317462
vn 0.29013596 0.92434432 0.24780777
vn -0.12103524 0.96663934 0.22574067
vn -0.12103524 0.96663934 0.22574067
vn -0.51146856 0.84331271 0.16499570
vn 0.32559549 0.87963055 -0.34675304
vn 0.31497779 0.94909781 -1.5308176e-3
vn 0.31497779 0.94909781 -1.5308176e-3
vn 0.26526604 0.90076607 0.34388140
vn 1.9998808e-2 0.99090391 -0.13307703
vn 0.22032316 0.96739611 -0.12490987
vn 0.22032316 0.96739611 -0.12490987
vn 0.41166953 0.90446772 -0.11165273
vn 0.14405576 0.82568546 0.54542777
vn -0.19860608 0.96751265 0.15644453
vn -0.19860608 0.96751265 0.15644453
vn -0.48390254 0.82988343 -0.27772616
vn 0.53772958 0.83149708 -0.13949735
vn 0.18305916 0.96111003 0.20677732
vn 0.18305916 0.96111003 0.20677732
vn -0.21966370 0.83843469 0.49877362
vn 7.1807830e-2 0.95690582 -0.28138031
vn 0.23932209 0.96245708 -0.12806754
vn 0.23932209 0.96245708 -0.12806754
vn 0.39448814 0.91834878 3.1853080e-2
vn -0.38498054 0.91590657 0.11360081
vn -8.2731297e-2 0.97501427 -0.20616182
vn -8.2731297e-2 0.97501427 -0.20616182
vn 0.23582399 0.84195011 -0.48529069
vn -0.12525601 0.98247729 0.13801924
vn -0.12390560 0.97188499 -0.20021732
vn -0.12390560 0.97188499 -0.20021732
vn -0.10836576 0.84999437 -0.51552539
vn 0.26515801 0.95346954 0.14348194
vn 2.0332918e-2 0.98866159 0.14877778
vn 2.0332918e-2 0.98866159 0.14877778
vn -0.22573667 0.96334177 0.14496755
vn 0.23110074 0.93361791 -0.27377007
vn 0.24215823 0.96958930 -3.5439764e-2
vn 0.24215823 0.96958930 -3.5439764e-2
vn 0.23911786 0.94911359 0.20495376
vn -0.24172277 0.95492763 -0.17228847
vn 0.19237653 0.96572907 -0.17423727
vn 0.19237653 0.96572907 -0.17423727
vn 0.59020080 0.79443006 -0.14333143
vn 0.43371841 0.79436394 0.42529316
vn 0.11022572 0.93789464 0.32894367
vn 0.11022572 0.93789464 0.32894367
vn -0.22809583 0.95524868 0.18834081
vn 0.44860746 0.76881019 -0.45572167
vn 0.34273523 0.93569984 8.3656273e-2
vn 0.34273523 0.93569984 8.3656273e-2
vn 0.12376392 0.79381823 0.59542851
vn -0.24947544 0.88003293 -0.40410896
vn 2.6453589e-3 0.92960160 -0.36855646
vn 2.6453589e-3 0.92960160 -0.36855646
vn 0.25458816 0.91662116 -0.30820530
vn -0.43067810 0.84814786 0.30848270
vn -0.28353823 0.95332923 -0.10377595
vn -0.28353823 0.95332923 -0.10377595
vn -7.8933537e-2 0.86529892 -0.49500229
vn 0.95265348 1.2612921e-2 -0.30379642
vn 0.33140954 3.6594502e-2 -0.94277705
vn 0.33140954 3.6594502e-2 -0.94277705
vn -0.55324379 3.1490210e-2 -0.83242398
vn 0.17649007 0.69568629 0.69632740
vn -0.23500558 0.91882906 0.31705762
vn -0.23500558 0.91882906 0.31705762
vn -0.56120198 0.80846727 -0.17729359
vn 0.58180326 0.80328175 -0.12744954
vn 0.20872162 0.93523658 0.28595074
vn -0.20555956 0.95283421 -0.22327613
vn -0.23271672 0.76089976 0.60570164
vn 0.12589650 0.92400687 -0.36105591
vn 0.35049552 0.92460924 -0.14916649
vn 0.35049552 0.92460924 -0.14916649
vn 0.54167754 0.83705731 7.6944781e-2
vn -0.54420511 0.81243913 0.20924499
vn -0.20555956 0.95283421 -0.22327613
vn 0.19916643 0.78692539 -0.58402154
vn 0.61672364 0.69594220 0.36785379
vn 7.4504482e-2 0.91709149 0.39165327
vn 7.4504482e-2 0.91709149 0.39165327
vn -0.49330511 0.82324274 0.28092963
vn 9.9774334e-2 0.86793249 -0.48655757
vn 0.52338352 0.84754917 8.7920990e-2
vn -0.58798020 0.80236007 -0.10245781
vn 0.68012686 0.39501252 0.61756988
vn -0.19366478 0.91955504 -0.34192468
vn 0.12819024 0.92653947 -0.35368331
vn 0.12819024 0.92653947 -0.35368331
vn 0.43674197 0.83736976 -0.32873749
vn -0.50266983 0.71973954 0.47885075
vn -0.58798020 0.80236007 -0.10245781
vn -0.46630763 0.60253088 -0.64769880
vn 5.8727777e-2 0.93907774 0.33865034
vn -9.0152778e-2 0.99039180 0.10486450
vn -9.0152778e-2 0.99039180 0.10486450
vn -0.23187030 0.96301490 -0.13725329
vn 0.23249567 0.96358081 0.13212788
vn 3.5168771e-2 0.96671744 0.25341772
vn 3.5168771e-2 0.96671744 0.25341772
vn -0.16404525 0.91798101 0.36110943
vn 0.25523725 0.90233090 -0.34735124
vn 0.36204164 0.91206346 -0.19252558
vn 0.36204164 0.91206346 -0.19252558
vn 0.45600336 0.88944249 -3.0870485e-2
vn -0.42977269 0.90292487 -4.7028518e-3
vn -2.3045817e-2 0.97062854 -0.23947676
vn -2.3045817e-2 0.97062854 -0.23947676
vn 0.38886934 0.81981527 -0.42033743
vn -0.13935667 0.98120235 -0.13349781
vn -5.0220808e-2 0.93463814 -0.35203610
vn -5.0220808e-2 0.93463814 -0.35203610
vn 4.1821451e-2 0.83398418 -0.55020120
vn 0.26787259 3.5657450e-2 -0.96279428
vn 0.96265244 5.7617721e-2 -0.26453822
vn 0.98207528 0.14430478 -0.12126123
vn -0.24092870 3.6687423e-2 -0.96984916
vn 0.25243553 4.3466727e-3 -0.96760395
vn 0.95016786 1.8704304e-2 -0.31117711
vn -0.22469234 -4.9191308e-3 -0.97441734
vn 0.94929184 6.1389033e-2 -0.30834460
vn 0.23352872 6.8995008e-2 -0.96989898
vn 0.94929342 6.6771574e-2 -0.30721907
vn 0.0000000e+0 1.00000000 -2.2196641e-15
vn -0.97215513 1.3125353e-3 -0.23433456
vn -0.95122751 3.8713351e-2 -0.30605145
vn -0.95470222 4.8396552e-3 -0.29752353
vn -0.95235537 -4.0191835e-4 -0.30499032
vn -0.95010658 6.6871785e-2 -0.30467302
vn 0.0000000e+0 1.00000000 -2.2196641e-15
vn 0.0000000e+0 1.00000000 0.0000000e+0
vn 0.0000000e+0 1.00000000 -1.4797760e-15
vn 0.0000000e+0 1.00000000 0.0000000e+0
vn 0.20872162 0.93523658 0.28595074
vn 0.52338352 0.84754917 8.7920990e-2
vn 0.94869399 5.0771547e-2 0.31209288
g unnamed_object1_nadel
usemtl nadel
s 1
f 12/1/12 13/31/13 11/30/11
f 12/1/12 14/3/14 13/31/13
f 16/1/16 17/31/17 15/30/15
f 16/1/16 18/3/18 17/31/17
f 20/1/20 21/31/21 19/30/19
f 20/1/20 22/3/22 21/31/21
f 24/1/24 25/31/25 23/30/23
f 24/1/24 26/3/26 25/31/25
f 28/1/28 29/31/29 27/30/27
f 28/1/28 30/3/30 29/31/29
f 32/1/32 33/31/33 31/30/31
f 32/1/32 34/3/34 33/31/33
f 36/1/36 37/31/37 35/30/35
f 36/1/36 38/3/38 37/31/37
f 40/1/40 41/31/41 39/30/39
f 40/1/40 42/3/42 41/31/41
f 44/1/44 45/31/45 43/30/43
f 44/1/44 46/3/46 45/31/45
f 48/1/48 49/31/49 47/30/47
f 48/1/48 50/3/50 49/31/49
f 52/1/52 53/31/53 51/30/51
f 52/1/52 54/3/54 53/31/53
f 56/1/56 57/31/57 55/30/55
f 56/1/56 58/3/58 57/31/57
f 60/1/60 61/31/61 59/30/59
f 60/1/60 62/3/62 61/31/61
f 64/1/64 65/31/65 63/30/63
f 64/1/64 66/3/66 65/31/65
f 68/1/68 69/31/69 67/30/67
f 68/1/68 70/3/70 69/31/69
f 72/1/72 73/31/73 71/30/71
f 72/1/72 74/3/74 73/31/73
f 76/1/76 77/31/77 75/30/75
f 76/1/76 78/3/78 77/31/77
f 80/1/80 81/31/81 79/30/79
f 80/1/80 82/3/82 81/31/81
f 84/1/84 85/31/85 83/30/83
f 84/1/84 86/3/86 85/31/85
f 88/1/88 89/31/89 87/30/87
f 88/1/88 90/3/90 89/31/89
f 92/1/92 93/31/93 91/30/91
f 92/1/92 94/3/94 93/31/93
f 96/1/96 97/31/97 95/30/95
f 96/1/96 98/3/98 97/31/97
f 100/1/100 101/31/101 99/30/99
f 100/1/100 102/3/102 101/31/101
f 104/1/104 169/31/169 103/30/103
f 106/3/106 169/31/169 104/1/104
f 108/1/108 109/31/109 107/30/107
f 108/1/108 110/3/110 109/31/109
f 111/30/111 112/1/112 105/31/105
f 112/1/112 113/3/113 105/31/105
f 115/1/115 116/31/116 114/30/114
f 115/1/115 117/3/117 116/31/116
f 119/1/119 170/31/170 118/30/118
f 121/3/121 170/31/170 119/1/119
f 123/1/123 124/31/124 122/30/122
f 123/1/123 125/3/125 124/31/124
f 126/30/126 127/1/127 120/31/120
f 127/1/127 128/3/128 120/31/120
f 130/1/130 131/31/131 129/30/129
f 130/1/130 132/3/132 131/31/131
f 134/1/134 135/31/135 133/30/133
f 134/1/134 136/3/136 135/31/135
f 138/1/138 139/31/139 137/30/137
f 138/1/138 140/3/140 139/31/139
f 142/1/142 143/31/143 141/30/141
f 142/1/142 144/3/144 143/31/143
f 146/1/146 147/31/147 145/30/145
f 146/1/146 148/3/148 147/31/147
g unnamed_object1_stamm_stamm.jpg
usemtl stamm_stamm.jpg
s 1
f 1/8/1 150/21/150 2/12/2
f 1/8/1 151/15/151 150/21/150
f 2/23/2 3/4/3 1/28/1
f 2/23/2 5/26/5 3/4/3
f 2/12/2 150/21/150 5/9/5
f 3/4/3 4/7/4 1/28/1
f 3/12/3 160/15/160 4/5/4
f 3/12/3 161/21/161 160/15/160
f 3/12/3 162/16/162 161/21/161
f 5/26/5 6/10/6 3/4/3
f 5/26/5 8/6/8 6/10/6
f 5/9/5 156/20/156 7/14/7
f 6/9/6 162/16/162 3/12/3
f 7/18/7 8/6/8 5/26/5
f 7/18/7 9/19/9 8/6/8
f 8/14/8 162/16/162 6/9/6
f 8/14/8 163/20/163 162/16/162
f 8/14/8 164/17/164 163/20/163
f 9/19/9 10/11/10 8/6/8
f 10/13/10 164/17/164 8/14/8
f 149/29/149 152/27/152 150/21/150
f 149/29/149 160/15/160 152/27/152
f 150/21/150 151/15/151 149/29/149
f 150/21/150 154/16/154 5/9/5
f 152/27/152 153/24/153 150/21/150
f 152/27/152 162/16/162 153/24/153
f 153/24/153 154/16/154 150/21/150
f 153/24/153 156/20/156 154/16/154
f 153/24/153 162/16/162 155/25/155
f 154/16/154 156/20/156 5/9/5
f 155/25/155 156/20/156 153/24/153
f 155/25/155 157/22/157 156/20/156
f 155/25/155 164/17/164 157/22/157
f 156/20/156 171/13/171 7/14/7
f 157/22/157 158/17/158 156/20/156
f 158/17/158 171/13/171 156/20/156
f 160/15/160 161/21/161 152/27/152
f 161/21/161 162/16/162 152/27/152
f 162/16/162 163/20/163 155/25/155
f 163/20/163 164/17/164 155/25/155
f 165/2/165 167/2/167 159/2/159
f 166/2/166 167/2/167 165/2/165
f 167/2/167 168/2/168 159/2/159
