{
  "accessors": [
    {
      "bufferView": 2,
      "componentType": 5126,
      "count": 4,
      "max": [
        -26.08038902282715,
        2.6474692821502686,
        3.050649881362915
      ],
      "min": [
        -26.08038902282715,
        1.5474692583084106,
        1.1506500244140625
      ],
      "type": "VEC3"
    },
    {
      "bufferView": 2,
      "byteOffset": 48,
      "componentType": 5126,
      "count": 4,
      "max": [
        1.0,
        -0.0,
        0.0
      ],
      "min": [
        1.0,
        -0.0,
        0.0
      ],
      "type": "VEC3"
    },
    {
      "bufferView": 1,
      "componentType": 5126,
      "count": 4,
      "max": [
        1.0,
        0.9750000238418579
      ],
      "min": [
        0.0,
        0.02500000037252903
      ],
      "type": "VEC2"
    },
    {
      "bufferView": 0,
      "componentType": 5125,
      "count": 6,
      "type": "SCALAR"
    },
    {
      "bufferView": 2,
      "byteOffset": 96,
      "componentType": 5126,
      "count": 8150,
      "max": [
        2.226522445678711,
        18.00407600402832,
        14.373482704162598
      ],
      "min": [
        -39.38923263549805,
        -18.41337013244629,
        -0.3129413425922394
      ],
      "type": "VEC3"
    },
    {
      "bufferView": 2,
      "byteOffset": 97896,
      "componentType": 5126,
      "count": 8150,
      "max": [
        1.0,
        1.0,
        1.0
      ],
      "min": [
        -1.0,
        -1.0,
        -1.0
      ],
      "type": "VEC3"
    },
    {
      "bufferView": 3,
      "componentType": 5126,
      "count": 8150,
      "max": [
        1.0,
        1.0,
        0.02823665551841259,
        1.0
      ],
      "min": [
        -1.0,
        -1.0,
        -1.0,
        -1.0
      ],
      "type": "VEC4"
    },
    {
      "bufferView": 1,
      "byteOffset": 32,
      "componentType": 5126,
      "count": 8150,
      "max": [
        10.327880859375,
        5.054345607757568
      ],
      "min": [
        -1.6370511054992676,
        -0.41463980078697205
      ],
      "type": "VEC2"
    },
    {
      "bufferView": 0,
      "byteOffset": 24,
      "componentType": 5125,
      "count": 18762,
      "type": "SCALAR"
    },
    {
      "bufferView": 2,
      "byteOffset": 195696,
      "componentType": 5126,
      "count": 3377,
      "max": [
        1.1549851894378662,
        17.603612899780273,
        14.373482704162598
      ],
      "min": [
        -39.25249099731445,
        -18.012907028198242,
        0.0
      ],
      "type": "VEC3"
    },
    {
      "bufferView": 2,
      "byteOffset": 236220,
      "componentType": 5126,
      "count": 3377,
      "max": [
        1.0,
        1.0,
        1.0
      ],
      "min": [
        -1.0,
        -1.0,
        -1.2465839450102878e-13
      ],
      "type": "VEC3"
    },
    {
      "bufferView": 3,
      "byteOffset": 130400,
      "componentType": 5126,
      "count": 3377,
      "max": [
        1.0,
        1.0,
        0.016679776832461357,
        1.0
      ],
      "min": [
        -1.0,
        -1.0,
        -0.00568542443215847,
        -1.0
      ],
      "type": "VEC4"
    },
    {
      "bufferView": 1,
      "byteOffset": 65232,
      "componentType": 5126,
      "count": 3377,
      "max": [
        8.244211196899414,
        5.054345607757568
      ],
      "min": [
        -0.0031927116215229034,
        -4.440892098500626e-16
      ],
      "type": "VEC2"
    },
    {
      "bufferView": 0,
      "byteOffset": 75072,
      "componentType": 5125,
      "count": 8841,
      "type": "SCALAR"
    },
    {
      "bufferView": 2,
      "byteOffset": 276744,
      "componentType": 5126,
      "count": 64,
      "max": [
        -26.060075759887695,
        2.088554859161377,
        2.800649881362915
      ],
      "min": [
        -26.076778411865234,
        1.538460373878479,
        1.4506499767303467
      ],
      "type": "VEC3"
    },
    {
      "bufferView": 2,
      "byteOffset": 277512,
      "componentType": 5126,
      "count": 64,
      "max": [
        0.0,
        1.0,
        1.0
      ],
      "min": [
        -0.9905895590782166,
        -0.8806081414222717,
        -1.0
      ],
      "type": "VEC3"
    },
    {
      "bufferView": 1,
      "byteOffset": 92248,
      "componentType": 5126,
      "count": 64,
      "max": [
        0.0,
        0.0
      ],
      "min": [
        0.0,
        0.0
      ],
      "type": "VEC2"
    },
    {
      "bufferView": 0,
      "byteOffset": 110436,
      "componentType": 5125,
      "count": 144,
      "type": "SCALAR"
    },
    {
      "bufferView": 2,
      "byteOffset": 278280,
      "componentType": 5126,
      "count": 609,
      "max": [
        2.2472245693206787,
        17.533151626586914,
        12.813482284545898
      ],
      "min": [
        -38.155738830566406,
        -17.934419631958008,
        1.4506499767303467
      ],
      "type": "VEC3"
    },
    {
      "bufferView": 2,
      "byteOffset": 285588,
      "componentType": 5126,
      "count": 609,
      "max": [
        1.0,
        1.0,
        1.0
      ],
      "min": [
        -1.0,
        -1.0,
        -1.0
      ],
      "type": "VEC3"
    },
    {
      "bufferView": 1,
      "byteOffset": 92760,
      "componentType": 5126,
      "count": 609,
      "max": [
        1.0,
        1.0
      ],
      "min": [
        0.0,
        0.0
      ],
      "type": "VEC2"
    },
    {
      "bufferView": 0,
      "byteOffset": 111012,
      "componentType": 5125,
      "count": 1824,
      "type": "SCALAR"
    },
    {
      "bufferView": 2,
      "byteOffset": 292896,
      "componentType": 5126,
      "count": 361,
      "max": [
        1.876522421836853,
        17.289697647094727,
        13.273482322692871
      ],
      "min": [
        -38.84075164794922,
        -17.698991775512695,
        4.440892098500626e-16
      ],
      "type": "VEC3"
    },
    {
      "bufferView": 2,
      "byteOffset": 297228,
      "componentType": 5126,
      "count": 361,
      "max": [
        1.0,
        0.10021514445543289,
        1.0
      ],
      "min": [
        -1.0,
        -0.10021514445543289,
        0.0
      ],
      "type": "VEC3"
    },
    {
      "bufferView": 3,
      "byteOffset": 184432,
      "componentType": 5126,
      "count": 361,
      "max": [
        1.0,
        1.0,
        0.1008942723274231,
        1.0
      ],
      "min": [
        -0.8660269379615784,
        -1.0,
        -0.10066504031419754,
        -1.0
      ],
      "type": "VEC4"
    },
    {
      "bufferView": 1,
      "byteOffset": 97632,
      "componentType": 5126,
      "count": 361,
      "max": [
        4.5,
        3.828273057937622
      ],
      "min": [
        -3.5,
        -2.977545738220215
      ],
      "type": "VEC2"
    },
    {
      "bufferView": 0,
      "byteOffset": 118308,
      "componentType": 5125,
      "count": 933,
      "type": "SCALAR"
    },
    {
      "bufferView": 2,
      "byteOffset": 301560,
      "componentType": 5126,
      "count": 88,
      "max": [
        -25.061655044555664,
        2.8824691772460938,
        10.70848274230957
      ],
      "min": [
        -26.061655044555664,
        -3.687530755996704,
        2.2384824752807617
      ],
      "type": "VEC3"
    },
    {
      "bufferView": 2,
      "byteOffset": 302616,
      "componentType": 5126,
      "count": 88,
      "max": [
        1.0,
        -0.0,
        0.0
      ],
      "min": [
        1.0,
        -0.0,
        0.0
      ],
      "type": "VEC3"
    },
    {
      "bufferView": 1,
      "byteOffset": 100520,
      "componentType": 5126,
      "count": 88,
      "max": [
        0.2931034564971924,
        1.0
      ],
      "min": [
        0.0,
        -1.1102230246251565e-16
      ],
      "type": "VEC2"
    },
    {
      "bufferView": 0,
      "byteOffset": 122040,
      "componentType": 5125,
      "count": 132,
      "type": "SCALAR"
    },
    {
      "bufferView": 2,
      "byteOffset": 303672,
      "componentType": 5126,
      "count": 528,
      "max": [
        2.337250232696533,
        17.526412963867188,
        12.773482322692871
      ],
      "min": [
        -38.15048599243164,
        -17.92768096923828,
        0.4831649959087372
      ],
      "type": "VEC3"
    },
    {
      "bufferView": 2,
      "byteOffset": 310008,
      "componentType": 5126,
      "count": 528,
      "max": [
        1.0,
        1.0,
        1.0
      ],
      "min": [
        -0.8660253882408142,
        -1.0,
        -1.0967218276656913e-14
      ],
      "type": "VEC3"
    },
    {
      "bufferView": 3,
      "byteOffset": 190208,
      "componentType": 5126,
      "count": 528,
      "max": [
        1.0,
        1.0,
        0.05401785299181938,
        1.0
      ],
      "min": [
        -1.0,
        -0.8768349885940552,
        -0.9999982714653015,
        -1.0
      ],
      "type": "VEC4"
    },
    {
      "bufferView": 1,
      "byteOffset": 101224,
      "componentType": 5126,
      "count": 528,
      "max": [
        1.0,
        0.8669913411140442
      ],
      "min": [
        0.0,
        0.0
      ],
      "type": "VEC2"
    },
    {
      "bufferView": 0,
      "byteOffset": 122568,
      "componentType": 5125,
      "count": 1512,
      "type": "SCALAR"
    },
    {
      "bufferView": 2,
      "byteOffset": 316344,
      "componentType": 5126,
      "count": 8285,
      "max": [
        2.4100773334503174,
        17.8424015045166,
        12.873482704162598
      ],
      "min": [
        -39.13674545288086,
        -18.25169563293457,
        0.0
      ],
      "type": "VEC3"
    },
    {
      "bufferView": 2,
      "byteOffset": 415764,
      "componentType": 5126,
      "count": 8285,
      "max": [
        1.0,
        1.0,
        1.0
      ],
      "min": [
        -1.0,
        -1.0,
        -1.0
      ],
      "type": "VEC3"
    },
    {
      "bufferView": 3,
      "byteOffset": 198656,
      "componentType": 5126,
      "count": 8285,
      "max": [
        1.0,
        1.0,
        1.0,
        1.0
      ],
      "min": [
        -1.0,
        -1.0,
        -1.0,
        -1.0
      ],
      "type": "VEC4"
    },
    {
      "bufferView": 1,
      "byteOffset": 105448,
      "componentType": 5126,
      "count": 8285,
      "max": [
        1.0040631294250488,
        3.380000114440918
      ],
      "min": [
        -0.28334692120552063,
        -2.380000114440918
      ],
      "type": "VEC2"
    },
    {
      "bufferView": 0,
      "byteOffset": 128616,
      "componentType": 5125,
      "count": 15699,
      "type": "SCALAR"
    },
    {
      "bufferView": 2,
      "byteOffset": 515184,
      "componentType": 5126,
      "count": 2649,
      "max": [
        2.4100773334503174,
        15.598567962646484,
        12.675948143005371
      ],
      "min": [
        -39.126365661621094,
        -16.18451690673828,
        0.0
      ],
      "type": "VEC3"
    },
    {
      "bufferView": 2,
      "byteOffset": 546972,
      "componentType": 5126,
      "count": 2649,
      "max": [
        1.0,
        1.0,
        1.0
      ],
      "min": [
        -1.0,
        -1.0,
        -1.0
      ],
      "type": "VEC3"
    },
    {
      "bufferView": 3,
      "byteOffset": 331216,
      "componentType": 5126,
      "count": 2649,
      "max": [
        1.0,
        1.0,
        1.0,
        1.0
      ],
      "min": [
        -1.0,
        -1.0,
        -1.0,
        -1.0
      ],
      "type": "VEC4"
    },
    {
      "bufferView": 1,
      "byteOffset": 171728,
      "componentType": 5126,
      "count": 2649,
      "max": [
        1.0982170104980469,
        1.8641434907913208
      ],
      "min": [
        -0.22116459906101227,
        -0.8687241673469543
      ],
      "type": "VEC2"
    },
    {
      "bufferView": 0,
      "byteOffset": 191412,
      "componentType": 5125,
      "count": 4557,
      "type": "SCALAR"
    }
  ],
  "asset": {
    "extras": {
      "author": "Simon T Griffiths (https://sketchfab.com/RubberMan)",
      "license": "SKETCHFAB Editorial (https://sketchfab.com/licenses)",
      "source": "https://sketchfab.com/3d-models/celtic-castle-object-21c182b536824e47a317eb650ed298ef",
      "title": "Celtic- Castle- Object"
    },
    "generator": "Sketchfab-12.66.0",
    "version": "2.0"
  },
  "bufferViews": [
    {
      "buffer": 0,
      "byteLength": 209640,
      "name": "floatBufferViews",
      "target": 34963
    },
    {
      "buffer": 0,
      "byteLength": 192920,
      "byteOffset": 209640,
      "byteStride": 8,
      "name": "floatBufferViews",
      "target": 34962
    },
    {
      "buffer": 0,
      "byteLength": 578760,
      "byteOffset": 402560,
      "byteStride": 12,
      "name": "floatBufferViews",
      "target": 34962
    },
    {
      "buffer": 0,
      "byteLength": 373600,
      "byteOffset": 981320,
      "byteStride": 16,
      "name": "floatBufferViews",
      "target": 34962
    }
  ],
  "buffers": [
    {
      "byteLength": 1354920,
      "uri": "scene.bin"
    }
  ],
  "images": [
    {
      "uri": "textures/Brickwork_baseColor.png"
    },
    {
      "uri": "textures/Brickwork_normal.png"
    },
    {
      "uri": "textures/Dark_baseColor.png"
    },
    {
      "uri": "textures/FloorPave_baseColor.png"
    },
    {
      "uri": "textures/FloorPave_normal.png"
    },
    {
      "uri": "textures/Glass_baseColor.png"
    },
    {
      "uri": "textures/PlainStone_baseColor.png"
    },
    {
      "uri": "textures/PlainStone_normal.png"
    },
    {
      "uri": "textures/StonewTrim_baseColor.png"
    },
    {
      "uri": "textures/StonewTrim_normal.png"
    },
    {
      "uri": "textures/Timber_baseColor.png"
    }
  ],
  "materials": [
    {
      "doubleSided": true,
      "name": "Brickwork",
      "normalTexture": {
        "index": 1
      },
      "pbrMetallicRoughness": {
        "baseColorTexture": {
          "index": 0
        },
        "metallicFactor": 0.0,
        "roughnessFactor": 0.8047551040008092
      }
    },
    {
      "doubleSided": true,
      "name": "Dark",
      "pbrMetallicRoughness": {
        "baseColorTexture": {
          "index": 2
        },
        "metallicFactor": 0.0,
        "roughnessFactor": 0.960331845031333
      }
    },
    {
      "doubleSided": true,
      "name": "FloorPave",
      "normalTexture": {
        "index": 4
      },
      "pbrMetallicRoughness": {
        "baseColorTexture": {
          "index": 3
        },
        "metallicFactor": 0.0,
        "roughnessFactor": 0.960331845031333
      }
    },
    {
      "doubleSided": true,
      "name": "Glass",
      "pbrMetallicRoughness": {
        "baseColorTexture": {
          "index": 5
        },
        "metallicFactor": 0.0,
        "roughnessFactor": 0.960331845031333
      }
    },
    {
      "doubleSided": true,
      "name": "PlainStone",
      "normalTexture": {
        "index": 7
      },
      "pbrMetallicRoughness": {
        "baseColorTexture": {
          "index": 6
        },
        "metallicFactor": 0.0,
        "roughnessFactor": 0.735424868893541
      }
    },
    {
      "doubleSided": true,
      "name": "StonewTrim",
      "normalTexture": {
        "index": 9
      },
      "pbrMetallicRoughness": {
        "baseColorTexture": {
          "index": 8
        },
        "metallicFactor": 0.0,
        "roughnessFactor": 0.9471787199627749
      }
    },
    {
      "doubleSided": true,
      "name": "Timber",
      "pbrMetallicRoughness": {
        "baseColorTexture": {
          "index": 10
        },
        "metallicFactor": 0.0,
        "roughnessFactor": 0.960331845031333
      }
    }
  ],
  "meshes": [
    {
      "name": "Object_0",
      "primitives": [
        {
          "attributes": {
            "NORMAL": 1,
            "POSITION": 0,
            "TEXCOORD_0": 2
          },
          "indices": 3,
          "material": 6,
          "mode": 4
        }
      ]
    },
    {
      "name": "Object_1",
      "primitives": [
        {
          "attributes": {
            "NORMAL": 5,
            "POSITION": 4,
            "TANGENT": 6,
            "TEXCOORD_0": 7
          },
          "indices": 8,
          "material": 0,
          "mode": 4
        }
      ]
    },
    {
      "name": "Object_2",
      "primitives": [
        {
          "attributes": {
            "NORMAL": 10,
            "POSITION": 9,
            "TANGENT": 11,
            "TEXCOORD_0": 12
          },
          "indices": 13,
          "material": 0,
          "mode": 4
        }
      ]
    },
    {
      "name": "Object_3",
      "primitives": [
        {
          "attributes": {
            "NORMAL": 15,
            "POSITION": 14,
            "TEXCOORD_0": 16
          },
          "indices": 17,
          "material": 1,
          "mode": 4
        }
      ]
    },
    {
      "name": "Object_4",
      "primitives": [
        {
          "attributes": {
            "NORMAL": 19,
            "POSITION": 18,
            "TEXCOORD_0": 20
          },
          "indices": 21,
          "material": 1,
          "mode": 4
        }
      ]
    },
    {
      "name": "Object_5",
      "primitives": [
        {
          "attributes": {
            "NORMAL": 23,
            "POSITION": 22,
            "TANGENT": 24,
            "TEXCOORD_0": 25
          },
          "indices": 26,
          "material": 2,
          "mode": 4
        }
      ]
    },
    {
      "name": "Object_6",
      "primitives": [
        {
          "attributes": {
            "NORMAL": 28,
            "POSITION": 27,
            "TEXCOORD_0": 29
          },
          "indices": 30,
          "material": 3,
          "mode": 4
        }
      ]
    },
    {
      "name": "Object_7",
      "primitives": [
        {
          "attributes": {
            "NORMAL": 32,
            "POSITION": 31,
            "TANGENT": 33,
            "TEXCOORD_0": 34
          },
          "indices": 35,
          "material": 4,
          "mode": 4
        }
      ]
    },
    {
      "name": "Object_8",
      "primitives": [
        {
          "attributes": {
            "NORMAL": 37,
            "POSITION": 36,
            "TANGENT": 38,
            "TEXCOORD_0": 39
          },
          "indices": 40,
          "material": 5,
          "mode": 4
        }
      ]
    },
    {
      "name": "Object_9",
      "primitives": [
        {
          "attributes": {
            "NORMAL": 42,
            "POSITION": 41,
            "TANGENT": 43,
            "TEXCOORD_0": 44
          },
          "indices": 45,
          "material": 5,
          "mode": 4
        }
      ]
    }
  ],
  "nodes": [
    {
      "children": [
        1
      ],
      "matrix": [
        2.220446049250313e-16,
        0.03724411129951455,
        0.9993062019348145,
        0.0,
        1.0,
        -1.0408340855860793e-17,
        -2.220446049250313e-16,
        0.0,
        -3.469446951953614e-18,
        0.9993062019348145,
        -0.03724411129951455,
        0.0,
        -18.285179138183594,
        0.6935130357742267,
        18.943387985229492,
        1.0
      ],
      "name": "Sketchfab_model"
    },
    {
      "children": [
        2,
        3,
        4,
        5,
        6,
        7,
        8,
        9,
        10,
        11
      ],
      "name": "Celtic_Castle.obj.cleaner.materialmerger.gles"
    },
    {
      "mesh": 0,
      "name": "Object_2"
    },
    {
      "mesh": 1,
      "name": "Object_3"
    },
    {
      "mesh": 2,
      "name": "Object_4"
    },
    {
      "mesh": 3,
      "name": "Object_5"
    },
    {
      "mesh": 4,
      "name": "Object_6"
    },
    {
      "mesh": 5,
      "name": "Object_7"
    },
    {
      "mesh": 6,
      "name": "Object_8"
    },
    {
      "mesh": 7,
      "name": "Object_9"
    },
    {
      "mesh": 8,
      "name": "Object_10"
    },
    {
      "mesh": 9,
      "name": "Object_11"
    }
  ],
  "samplers": [
    {
      "magFilter": 9729,
      "minFilter": 9987,
      "wrapS": 10497,
      "wrapT": 10497
    }
  ],
  "scene": 0,
  "scenes": [
    {
      "name": "Sketchfab_Scene",
      "nodes": [
        0
      ]
    }
  ],
  "textures": [
    {
      "sampler": 0,
      "source": 0
    },
    {
      "sampler": 0,
      "source": 1
    },
    {
      "sampler": 0,
      "source": 2
    },
    {
      "sampler": 0,
      "source": 3
    },
    {
      "sampler": 0,
      "source": 4
    },
    {
      "sampler": 0,
      "source": 5
    },
    {
      "sampler": 0,
      "source": 6
    },
    {
      "sampler": 0,
      "source": 7
    },
    {
      "sampler": 0,
      "source": 8
    },
    {
      "sampler": 0,
      "source": 9
    },
    {
      "sampler": 0,
      "source": 10
    }
  ]
}
