{
  "accessors": [
    {
      "bufferView": 2,
      "componentType": 5126,
      "count": 35203,
      "max": [
        49.657432556152344,
        11.828088760375977,
        34.144569396972656
      ],
      "min": [
        -36.41649627685547,
        -102.69483947753906,
        -22.323034286499023
      ],
      "type": "VEC3"
    },
    {
      "bufferView": 2,
      "byteOffset": 422436,
      "componentType": 5126,
      "count": 35203,
      "max": [
        0.9999405145645142,
        0.9999225735664368,
        0.9999346137046814
      ],
      "min": [
        -0.999872624874115,
        -1.0,
        -0.999930739402771
      ],
      "type": "VEC3"
    },
    {
      "bufferView": 3,
      "componentType": 5126,
      "count": 35203,
      "max": [
        0.9999993443489075,
        0.9999683499336243,
        0.9999507069587708,
        1.0
      ],
      "min": [
        -0.9999372959136963,
        -0.9999929666519165,
        -0.9999704957008362,
        -1.0
      ],
      "type": "VEC4"
    },
    {
      "bufferView": 1,
      "componentType": 5126,
      "count": 35203,
      "max": [
        0.9980469942092896,
        0.9978979825973511
      ],
      "min": [
        0.0019529999699443579,
        0.0019529999699443579
      ],
      "type": "VEC2"
    },
    {
      "bufferView": 0,
      "componentType": 5125,
      "count": 165756,
      "type": "SCALAR"
    },
    {
      "bufferView": 2,
      "byteOffset": 844872,
      "componentType": 5126,
      "count": 18826,
      "max": [
        41.872657775878906,
        106.41509246826172,
        31.11033058166504
      ],
      "min": [
        -45.47172164916992,
        -104.06008911132813,
        -22.923587799072266
      ],
      "type": "VEC3"
    },
    {
      "bufferView": 2,
      "byteOffset": 1070784,
      "componentType": 5126,
      "count": 18826,
      "max": [
        0.9999938607215881,
        0.9999686479568481,
        0.9993858933448792
      ],
      "min": [
        -0.9999277591705322,
        -0.9999841451644897,
        -0.9999185800552368
      ],
      "type": "VEC3"
    },
    {
      "bufferView": 3,
      "byteOffset": 563248,
      "componentType": 5126,
      "count": 18826,
      "max": [
        0.9999914169311523,
        0.9999780058860779,
        0.9997797012329102,
        1.0
      ],
      "min": [
        -0.9999461770057678,
        -0.9999315738677979,
        -0.9999746680259705,
        -1.0
      ],
      "type": "VEC4"
    },
    {
      "bufferView": 1,
      "byteOffset": 281624,
      "componentType": 5126,
      "count": 18826,
      "max": [
        0.9927399754524231,
        0.9980469942092896
      ],
      "min": [
        0.0019529999699443579,
        0.0019529999699443579
      ],
      "type": "VEC2"
    },
    {
      "bufferView": 0,
      "byteOffset": 663024,
      "componentType": 5125,
      "count": 100122,
      "type": "SCALAR"
    }
  ],
  "asset": {
    "extras": {
      "author": "Andy Woodhead (https://sketchfab.com/Andywoodhead)",
      "license": "CC-BY-4.0 (http://creativecommons.org/licenses/by/4.0/)",
      "source": "https://sketchfab.com/3d-models/knight-includes-file-for-3d-printing-58fc98f3223f4036b5570ae296e1be5d",
      "title": "Knight - includes file for 3d printing"
    },
    "generator": "Sketchfab-13.31.0",
    "version": "2.0"
  },
  "bufferViews": [
    {
      "buffer": 0,
      "byteLength": 1063512,
      "name": "floatBufferViews",
      "target": 34963
    },
    {
      "buffer": 0,
      "byteLength": 432232,
      "byteOffset": 1063512,
      "byteStride": 8,
      "name": "floatBufferViews",
      "target": 34962
    },
    {
      "buffer": 0,
      "byteLength": 1296696,
      "byteOffset": 1495744,
      "byteStride": 12,
      "name": "floatBufferViews",
      "target": 34962
    },
    {
      "buffer": 0,
      "byteLength": 864464,
      "byteOffset": 2792440,
      "byteStride": 16,
      "name": "floatBufferViews",
      "target": 34962
    }
  ],
  "buffers": [
    {
      "byteLength": 3656904,
      "uri": "scene.bin"
    }
  ],
  "images": [
    {
      "uri": "textures/Upper_baseColor.jpeg"
    },
    {
      "uri": "textures/Upper_metallicRoughness.png"
    },
    {
      "uri": "textures/Upper_normal.png"
    },
    {
      "uri": "textures/Lower_baseColor.jpeg"
    },
    {
      "uri": "textures/Lower_metallicRoughness.png"
    },
    {
      "uri": "textures/Lower_normal.png"
    }
  ],
  "materials": [
    {
      "doubleSided": true,
      "name": "Upper",
      "normalTexture": {
        "index": 2
      },
      "occlusionTexture": {
        "index": 1
      },
      "pbrMetallicRoughness": {
        "baseColorTexture": {
          "index": 0
        },
        "metallicRoughnessTexture": {
          "index": 1
        }
      }
    },
    {
      "doubleSided": true,
      "name": "Lower",
      "normalTexture": {
        "index": 5
      },
      "occlusionTexture": {
        "index": 4
      },
      "pbrMetallicRoughness": {
        "baseColorTexture": {
          "index": 3
        },
        "metallicRoughnessTexture": {
          "index": 4
        }
      }
    }
  ],
  "meshes": [
    {
      "name": "defaultMaterial",
      "primitives": [
        {
          "attributes": {
            "NORMAL": 1,
            "POSITION": 0,
            "TANGENT": 2,
            "TEXCOORD_0": 3
          },
          "indices": 4,
          "material": 1,
          "mode": 4
        }
      ]
    },
    {
      "name": "defaultMaterial",
      "primitives": [
        {
          "attributes": {
            "NORMAL": 6,
            "POSITION": 5,
            "TANGENT": 7,
            "TEXCOORD_0": 8
          },
          "indices": 9,
          "material": 0,
          "mode": 4
        }
      ]
    }
  ],
  "nodes": [
    {
      "children": [
        1
      ],
      "matrix": [
        1.0,
        0.0,
        0.0,
        0.0,
        0.0,
        2.220446049250313e-16,
        -1.0,
        0.0,
        0.0,
        1.0,
        2.220446049250313e-16,
        0.0,
        0.0,
        0.0,
        0.0,
        1.0
      ],
      "name": "Sketchfab_model"
    },
    {
      "children": [
        2,
        4
      ],
      "matrix": [
        1.0,
        0.0,
        0.0,
        0.0,
        0.0,
        -4.371139006309477e-08,
        0.999999999999999,
        0.0,
        0.0,
        -0.999999999999999,
        -4.371139006309477e-08,
        0.0,
        0.0,
        0.0,
        0.0,
        1.0
      ],
      "name": "Collada visual scene group"
    },
    {
      "children": [
        3
      ],
      "name": "Lower"
    },
    {
      "mesh": 0,
      "name": "defaultMaterial"
    },
    {
      "children": [
        5
      ],
      "name": "Upper"
    },
    {
      "mesh": 1,
      "name": "defaultMaterial"
    }
  ],
  "samplers": [
    {
      "magFilter": 9729,
      "minFilter": 9987,
      "wrapS": 10497,
      "wrapT": 10497
    }
  ],
  "scene": 0,
  "scenes": [
    {
      "name": "Sketchfab_Scene",
      "nodes": [
        0
      ]
    }
  ],
  "textures": [
    {
      "sampler": 0,
      "source": 0
    },
    {
      "sampler": 0,
      "source": 1
    },
    {
      "sampler": 0,
      "source": 2
    },
    {
      "sampler": 0,
      "source": 3
    },
    {
      "sampler": 0,
      "source": 4
    },
    {
      "sampler": 0,
      "source": 5
    }
  ]
}
