{
  "accessors": [
    {
      "bufferView": 2,
      "componentType": 5126,
      "count": 15662,
      "max": [
        382.68701171875,
        896.9530029296875,
        443.2539978027344
      ],
      "min": [
        -950.3380126953125,
        -896.9530029296875,
        -6.8754048347473145
      ],
      "type": "VEC3"
    },
    {
      "bufferView": 2,
      "byteOffset": 187944,
      "componentType": 5126,
      "count": 15662,
      "max": [
        0.9999950528144836,
        0.9998253583908081,
        0.9999595284461975
      ],
      "min": [
        -0.9999514818191528,
        -0.999989926815033,
        -0.9999526739120483
      ],
      "type": "VEC3"
    },
    {
      "bufferView": 1,
      "componentType": 5126,
      "count": 15662,
      "max": [
        0.9980679750442505,
        0.9981679916381836
      ],
      "min": [
        0.00250855996273458,
        0.0029761800542473793
      ],
      "type": "VEC2"
    },
    {
      "bufferView": 0,
      "componentType": 5125,
      "count": 47682,
      "type": "SCALAR"
    },
    {
      "bufferView": 2,
      "byteOffset": 375888,
      "componentType": 5126,
      "count": 102,
      "max": [
        334.4169921875,
        21.117095947265625,
        264.6929931640625
      ],
      "min": [
        327.8630065917969,
        -21.117103576660156,
        257.6109924316406
      ],
      "type": "VEC3"
    },
    {
      "bufferView": 2,
      "byteOffset": 377112,
      "componentType": 5126,
      "count": 102,
      "max": [
        0.9966652393341064,
        0.9877622127532959,
        0.9918590188026428
      ],
      "min": [
        -0.6021384000778198,
        -0.9877622127532959,
        -0.98768150806427
      ],
      "type": "VEC3"
    },
    {
      "bufferView": 1,
      "byteOffset": 125296,
      "componentType": 5126,
      "count": 102,
      "max": [
        0.9642980098724365,
        0.9720410108566284
      ],
      "min": [
        0.03021639958024025,
        0.03969943895936012
      ],
      "type": "VEC2"
    },
    {
      "bufferView": 0,
      "byteOffset": 190728,
      "componentType": 5125,
      "count": 540,
      "type": "SCALAR"
    }
  ],
  "asset": {
    "extras": {
      "author": "Dilirios (https://sketchfab.com/Dilirios)",
      "license": "CC-BY-4.0 (http://creativecommons.org/licenses/by/4.0/)",
      "source": "https://sketchfab.com/3d-models/alduin-c1d54a5145004198ac9c45da418239c8",
      "title": "ALDUIN"
    },
    "generator": "Sketchfab-12.67.0",
    "version": "2.0"
  },
  "bufferViews": [
    {
      "buffer": 0,
      "byteLength": 192888,
      "name": "floatBufferViews",
      "target": 34963
    },
    {
      "buffer": 0,
      "byteLength": 126112,
      "byteOffset": 192888,
      "byteStride": 8,
      "name": "floatBufferViews",
      "target": 34962
    },
    {
      "buffer": 0,
      "byteLength": 378336,
      "byteOffset": 319000,
      "byteStride": 12,
      "name": "floatBufferViews",
      "target": 34962
    }
  ],
  "buffers": [
    {
      "byteLength": 697336,
      "uri": "scene.bin"
    }
  ],
  "images": [
    {
      "uri": "textures/Material_baseColor.jpeg"
    },
    {
      "uri": "textures/Material.1_baseColor.jpeg"
    },
    {
      "uri": "textures/Material.1_emissive.jpeg"
    }
  ],
  "materials": [
    {
      "doubleSided": true,
      "name": "Material",
      "pbrMetallicRoughness": {
        "baseColorTexture": {
          "index": 0
        },
        "metallicFactor": 0.0,
        "roughnessFactor": 0.6
      }
    },
    {
      "doubleSided": true,
      "emissiveTexture": {
        "index": 2
      },
      "name": "Material.1",
      "pbrMetallicRoughness": {
        "baseColorTexture": {
          "index": 1
        },
        "metallicFactor": 0.0,
        "roughnessFactor": 0.6
      }
    }
  ],
  "meshes": [
    {
      "name": "Object_0",
      "primitives": [
        {
          "attributes": {
            "NORMAL": 1,
            "POSITION": 0,
            "TEXCOORD_0": 2
          },
          "indices": 3,
          "material": 0,
          "mode": 4
        }
      ]
    },
    {
      "name": "Object_1",
      "primitives": [
        {
          "attributes": {
            "NORMAL": 5,
            "POSITION": 4,
            "TEXCOORD_0": 6
          },
          "indices": 7,
          "material": 1,
          "mode": 4
        }
      ]
    }
  ],
  "nodes": [
    {
      "children": [
        1
      ],
      "matrix": [
        1.0,
        0.0,
        0.0,
        0.0,
        0.0,
        2.220446049250313e-16,
        -1.0,
        0.0,
        0.0,
        1.0,
        2.220446049250313e-16,
        0.0,
        0.0,
        0.0,
        0.0,
        1.0
      ],
      "name": "Sketchfab_model"
    },
    {
      "children": [
        2,
        3
      ],
      "name": "alduin.obj.cleaner.materialmerger.gles"
    },
    {
      "mesh": 0,
      "name": "Object_2"
    },
    {
      "mesh": 1,
      "name": "Object_3"
    }
  ],
  "samplers": [
    {
      "magFilter": 9729,
      "minFilter": 9987,
      "wrapS": 10497,
      "wrapT": 10497
    }
  ],
  "scene": 0,
  "scenes": [
    {
      "name": "Sketchfab_Scene",
      "nodes": [
        0
      ]
    }
  ],
  "textures": [
    {
      "sampler": 0,
      "source": 0
    },
    {
      "sampler": 0,
      "source": 1
    },
    {
      "sampler": 0,
      "source": 2
    }
  ]
}
