# Exported from Wings 3D 1.2.rc2
mtllib tree1.mtl
o unnamed_object1
#134 vertices, 105 faces
v 6.0156000e-2 -5.1560000e-3 5.2344000e-2
v 3.4219000e-2 0.24390600 3.2812000e-2
v -2.5937000e-2 0.24390600 3.2812000e-2
v -1.2031000e-2 -5.1560000e-3 7.0312000e-2
v 4.6563000e-2 0.59296900 4.3125000e-2
v 1.2500000e-3 0.59296900 4.3125000e-2
v 2.6406000e-2 0.86218800 2.0625000e-2
v -1.8125000e-2 0.86218800 2.0625000e-2
v 3.1875000e-2 1.20140600 2.4531000e-2
v -3.5940000e-3 1.20140600 2.4531000e-2
v -9.3700000e-4 1.55046900 -7.3440000e-3
v -1.9219000e-2 1.55046900 -7.3440000e-3
v 4.0781000e-2 1.67656200 0.40906200
v -4.8440000e-3 2.20500000 1.5000000e-2
v -4.8440000e-3 1.50500000 -2.0000000e-2
v -0.46718700 1.75000000 -3.0781000e-2
v 1.1250000e-2 1.11500000 -0.48515600
v -0.50078100 1.20500000 -0.38500000
v 4.6900000e-4 0.85500000 -9.3750000e-3
v -0.44375000 0.98000000 0.17046900
v -0.44375000 1.09000000 -1.1563000e-2
v -0.25859400 1.23000000 0.54046900
v 6.8750000e-3 0.92500000 -9.3800000e-4
v 0.20187500 1.10500000 0.44343700
v 1.1875000e-2 1.05500000 0.48140600
v 0.55890600 1.15000000 0.38140600
v 2.2500000e-2 0.82000000 5.7810000e-3
v 0.46687500 1.05500000 -0.17421900
v 0.49125000 1.12000000 8.5940000e-3
v 0.35609400 1.21500000 -0.44343800
v 5.4690000e-3 0.92500000 -1.8750000e-3
v -0.17437500 1.19500000 -0.44640600
v 0.25359400 1.10500000 0.37312500
v 0.62734400 1.33000000 5.7969000e-2
v 2.5000000e-2 0.95500000 9.3700000e-4
v 0.31984400 1.19000000 -0.37718800
v 0.44250000 1.33000000 -0.23187500
v 7.2344000e-2 1.38000000 -0.58062500
v 1.5156000e-2 1.02500000 -3.1250000e-3
v -0.37281200 1.16500000 -0.29812500
v -0.23015600 1.15500000 -0.41859400
v -0.65390600 1.25000000 -5.8281000e-2
v -1.5620000e-3 0.92000000 -1.2500000e-3
v -0.29640600 1.24000000 0.37671900
v -0.40031200 1.25000000 0.22546900
v -4.0000000e-2 1.38000000 0.61421900
v 1.6875000e-2 1.02500000 -2.9690000e-3
v 0.39500000 1.21500000 0.29171900
v 0.44109400 1.29000000 0.20468700
v 0.53156300 1.48000000 -0.33328100
v 9.5310000e-3 1.10000000 -5.7810000e-3
v 3.4063000e-2 1.33500000 -0.48468800
v 0.20968800 1.40500000 -0.43031300
v -0.32828100 1.50000000 -0.57078100
v -7.8100000e-4 1.17000000 -3.7500000e-3
v -0.46968700 1.34000000 -2.8281000e-2
v -0.44015600 1.22000000 -0.20312500
v -0.53078100 1.49500000 0.30484400
v -1.3594000e-2 1.06500000 7.5000000e-3
v -3.8125000e-2 1.30500000 0.48640600
v -0.21000000 1.40500000 0.42203100
v 0.32796900 1.48500000 0.56250000
v 6.2500000e-4 1.17000000 -4.3750000e-3
v 0.47453100 1.35500000 2.0000000e-2
v -8.5000000e-2 1.57500000 0.47000000
v 0.42500000 1.76000000 0.47000000
v 1.0000000e-2 1.40000000 1.0000000e-2
v 0.47000000 1.63000000 -9.0000000e-2
v 0.46000000 1.68500000 0.13000000
v 0.44000000 1.82500000 -0.50000000
v 0.0000000e+0 1.47000000 0.0000000e+0
v -2.0000000e-2 1.65500000 -0.48000000
v 8.0000000e-2 1.60000000 -0.48000000
v -0.48000000 1.69000000 -0.47000000
v -1.0000000e-2 1.36000000 -1.0000000e-2
v -0.48000000 1.60000000 9.0000000e-2
v -0.45000000 1.64000000 -9.0000000e-2
v -0.46000000 1.80000000 0.46000000
v 0.0000000e+0 1.47000000 0.0000000e+0
v 0.10000000 1.70000000 0.47000000
v 0.25921900 0.92000000 0.39562500
v 0.69000000 1.09500000 0.0000000e+0
v 2.0156000e-2 0.72000000 0.0000000e+0
v 0.22593800 1.02000000 -0.40234400
v 0.39578100 1.07000000 -0.26750000
v 1.0000000e-2 1.12500000 -0.59812500
v 1.0000000e-2 0.79000000 -3.2810000e-3
v -0.39218800 1.02500000 -0.26406300
v -0.26562500 0.98500000 -0.39562500
v -0.59640600 1.07000000 0.0000000e+0
v -6.5620000e-3 0.68500000 0.0000000e+0
v -0.23234400 0.99500000 0.40234400
v -0.42390600 1.11000000 0.26078100
v 1.1719000e-2 1.09000000 0.59656200
v 1.1719000e-2 0.79000000 -3.1250000e-3
v 0.40421900 0.98000000 0.25750000
v 0.49171900 1.40000000 -0.12750000
v 0.18515600 1.66000000 -0.59796900
v 5.6250000e-3 1.22500000 -1.1406000e-2
v -0.26812500 1.45500000 -0.39421900
v -0.11359400 1.53000000 -0.46546900
v -0.61609400 1.62500000 -0.22718800
v -7.8100000e-4 1.29500000 -3.1250000e-3
v -0.37578100 1.46500000 0.27921900
v -0.46062500 1.36500000 0.12640600
v -0.19828100 1.66500000 0.57375000
v -3.2810000e-3 1.19000000 1.3594000e-2
v 0.27546900 1.43500000 0.39625000
v 0.11250000 1.53000000 0.45734400
v 0.61515600 1.61000000 0.21906200
v -1.5600000e-4 1.29500000 -4.6880000e-3
v 0.37859400 1.48000000 -0.29046900
v -0.27171900 1.67000000 -0.33703100
v 0.35468700 2.14828100 -0.24765600
v -1.2500000e-3 1.48500000 -1.2969000e-2
v 0.21218700 1.76328100 0.22781200
v 2.3906000e-2 -5.1560000e-3 -6.6094000e-2
v 5.2812000e-2 0.24390600 -2.4531000e-2
v 9.1406000e-2 -5.1560000e-3 1.5630000e-3
v 4.0620000e-3 0.24390600 -5.9844000e-2
v 2.3906000e-2 0.59296900 -2.6250000e-2
v 6.0469000e-2 0.59296900 1.5600000e-4
v 4.0620000e-3 0.86218800 -4.7969000e-2
v 4.0156000e-2 0.86218800 -2.1719000e-2
v 1.4062000e-2 1.20140600 -3.0313000e-2
v 4.2969000e-2 1.20140600 -9.3750000e-3
v -1.0000000e-2 1.56531300 -3.5469000e-2
v 4.5310000e-3 1.55890600 -2.4688000e-2
v -5.2500000e-2 -5.1560000e-3 1.5630000e-3
v -4.4531000e-2 0.24390600 -2.4531000e-2
v -1.7969000e-2 0.59296900 1.5600000e-4
v -3.1875000e-2 0.86218800 -2.1719000e-2
v -1.4687000e-2 1.20140600 -9.3750000e-3
v -2.4844000e-2 1.55890600 -2.4688000e-2
vt -1.5370000e-3 0.99891000
vt 2.0500000e-4 -1.0880000e-3
vt 0.26953100 -0.79124300
vt 0.28515600 -1.13281200
vt 0.31570300 1.00000000
vt 0.32074000 5.6399000e-2
vt 0.33051300 -1.13281200
vt 0.34024800 -1.13281200
vt 0.35927700 -0.32028400
vt 0.38684300 -0.31258800
vt 0.38707800 0.52134500
vt 0.39319800 -0.79444800
vt 0.39960400 1.00000000
vt 0.42493000 0.50582400
vt 0.43553900 4.5240000e-2
vt 0.49580800 -1.13281200
vt 0.50556300 -0.32028400
vt 0.51308200 0.97998700
vt 0.51855300 0.50582400
vt 0.52557700 5.6399000e-2
vt 0.55094700 0.52134500
vt 0.55256800 4.5240000e-2
vt 0.56101600 0.99142300
vt 0.56874100 -0.79444800
vt 0.57641500 0.50582400
vt 0.57678600 -0.79124300
vt 0.59064200 1.00000000
vt 0.59597200 -0.32028400
vt 0.62489500 4.5240000e-2
vt 0.64288900 -0.31258800
vt 0.67723200 -0.79444800
vt 0.69921900 -1.13281200
vt 0.70312500 -1.13281200
vt 0.99846200 1.00065200
vt 1.00020400 6.5300000e-4
vn 0.58107906 0.15587347 0.79878068
vn 0.58684310 3.9730907e-2 0.80872531
vn -0.52971344 5.8166928e-2 0.84617981
vn -0.38857790 0.11593471 0.91409319
vn 0.58753039 3.3306195e-2 0.80851638
vn -0.54399156 2.4200437e-2 0.83874163
vn 0.58703620 4.6234402e-2 0.80823937
vn -0.57668153 2.4822654e-2 0.81659185
vn 0.58129224 5.4655466e-2 0.81185720
vn -0.58717083 3.1638502e-2 0.80884450
vn 0.29618602 0.64059091 0.70846110
vn -0.50895123 0.28151154 0.81346168
vn -0.99415025 -5.3935603e-3 0.10787121
vn -0.68612202 -3.6328941e-2 0.72657882
vn -0.68612202 -3.6328941e-2 0.72657882
vn -4.9690057e-2 -4.9875928e-2 0.99751857
vn 0.24113902 0.84931590 0.46958969
vn 0.30875599 0.86549901 0.39443783
vn 0.30875599 0.86549901 0.39443783
vn 0.37313666 0.87261017 0.31515158
vn 0.33094607 0.88227759 -0.33475507
vn 0.24261721 0.89126324 -0.38312756
vn 0.24261721 0.89126324 -0.38312756
vn 0.15180816 0.89113785 -0.42758347
vn -0.23068916 0.87029943 -0.43515677
vn -0.36861761 0.89301754 -0.25814866
vn -0.36861761 0.89301754 -0.25814866
vn -0.48779365 0.87030585 -6.8007951e-2
vn -0.36150556 0.88479100 0.29403846
vn -0.20238941 0.88455821 0.42023243
vn -0.20238941 0.88455821 0.42023243
vn -3.4926125e-2 0.84784365 0.52909480
vn -0.52715026 0.84956797 -1.8624482e-2
vn -0.53099856 0.84623196 4.3954433e-2
vn -0.53099856 0.84623196 4.3954433e-2
vn -0.53275363 0.83956007 0.10636008
vn -0.33220565 0.81785065 0.46985074
vn -0.21005237 0.84204857 0.49682211
vn -0.21005237 0.84204857 0.49682211
vn -8.4489010e-2 0.85257632 0.51572786
vn 0.41740381 0.87030418 0.26142817
vn 0.45410778 0.88977036 -4.5769240e-2
vn 0.45410778 0.88977036 -4.5769240e-2
vn 0.44717365 0.82373285 -0.34856839
vn 0.20246466 0.85683079 -0.47418251
vn 7.9991916e-2 0.86722574 -0.49144766
vn 7.9991916e-2 0.86722574 -0.49144766
vn -4.3713162e-2 0.86426046 -0.50114171
vn -0.48065885 0.84910616 0.21905661
vn -0.42558239 0.85065661 0.30864698
vn -0.42558239 0.85065661 0.30864698
vn -0.36579803 0.84279688 0.39482302
vn 2.5242521e-2 0.87028210 0.49190638
vn 0.16698516 0.89103021 0.42211507
vn 0.16698516 0.89103021 0.42211507
vn 0.30448767 0.88915302 0.34160528
vn 0.46893977 0.80904024 -0.35432949
vn 0.46032371 0.80798236 -0.36778605
vn 0.46032371 0.80798236 -0.36778605
vn 0.45158961 0.80671730 -0.38114830
vn -3.7242367e-3 0.87501729 -0.48407734
vn -0.17133825 0.89986888 -0.40109750
vn -0.17133825 0.89986888 -0.40109750
vn -0.33285302 0.89268719 -0.30383952
vn -0.31348955 0.86421444 -0.39351964
vn -0.39684762 0.86165889 -0.31631618
vn -0.39684762 0.86165889 -0.31631618
vn -0.47508021 0.84797461 -0.23502734
vn -0.46157200 0.86276263 0.20637811
vn -0.38834949 0.87752851 0.28129769
vn -0.38834949 0.87752851 0.28129769
vn -0.31078037 0.88247264 0.35306884
vn 0.14809313 0.86901182 0.47210897
vn 0.31968737 0.89378615 0.31455731
vn 0.31968737 0.89378615 0.31455731
vn 0.47373689 0.86950871 0.13974247
vn 0.38563501 0.88778254 -0.25125247
vn 0.27805521 0.89029619 -0.36063554
vn 0.27805521 0.89029619 -0.36063554
vn 0.16392877 0.87184837 -0.46152766
vn -0.48337196 0.86342349 -0.14440024
vn -0.48508714 0.86648722 0.11785741
vn -0.48508714 0.86648722 0.11785741
vn -0.45343249 0.80994408 0.37200749
vn -0.28411460 0.83541789 0.47048469
vn -4.9686269e-2 0.87024871 0.49010046
vn -4.9686269e-2 0.87024871 0.49010046
vn 0.18755205 0.85586295 0.48199879
vn 0.52673933 0.80699748 0.26702199
vn 0.54637079 0.83707411 -2.8033732e-2
vn 0.54637079 0.83707411 -2.8033732e-2
vn 0.51773156 0.79319702 -0.32061273
vn 0.36003688 0.83435806 -0.41739677
vn 0.11637943 0.88825666 -0.44436014
vn 0.11637943 0.88825666 -0.44436014
vn -0.13461004 0.88619417 -0.44332835
vn -0.16094921 0.81568462 0.55565632
vn -0.13665212 0.81524302 0.56276550
vn -0.13665212 0.81524302 0.56276550
vn -0.11226743 0.81427878 0.56951391
vn 0.33549145 0.87033168 0.36051111
vn 0.39921606 0.89104535 0.21602021
vn 0.39921606 0.89104535 0.21602021
vn 0.45281354 0.88915542 6.6049417e-2
vn 0.14785269 0.77911187 -0.60919970
vn 0.14909953 0.77917301 -0.60881750
vn 0.14909953 0.77917301 -0.60881750
vn 0.15034611 0.77923283 -0.60843426
vn -0.31394835 0.87501050 -0.36850110
vn -0.38900270 0.89989661 -0.19713700
vn -0.38900270 0.89989661 -0.19713700
vn -0.45020150 0.89273008 -1.8751252e-2
vn 0.49200129 -0.51292351 -0.70345164
vn 0.70676415 -0.54069376 -0.45621781
vn 0.70676415 -0.54069376 -0.45621781
vn 0.84518317 -0.51005891 -0.15970387
vn 0.26826947 2.9191395e-2 -0.96290153
vn 0.96197136 6.4532013e-2 -0.26541801
vn 0.98275352 0.13957632 -0.12130115
vn -0.24006130 4.5105688e-2 -0.96970926
vn 0.25250412 9.7388189e-3 -0.96754681
vn 0.94992187 2.3688807e-2 -0.31158833
vn -0.22349745 -1.6238207e-2 -0.97456924
vn 0.95041172 2.4850737e-2 -0.31000002
vn 0.23854199 2.3145894e-2 -0.97085632
vn 0.94980027 4.5991525e-2 -0.30945795
vn -0.25997807 0.36747031 -0.89295967
vn 0.83104891 0.55619912 5.0998975e-4
vn -0.97194058 -2.8374323e-3 -0.23520940
vn -0.95020249 4.6028659e-2 -0.30821517
vn -0.95460287 1.0213652e-2 -0.29770629
vn -0.95169603 -7.2893523e-3 -0.30695526
vn -0.95050553 9.6924200e-3 -0.31055642
vn -0.48714741 0.82799297 0.27769594
g unnamed_object1_stamm
usemtl stamm
s 1
f 1/8/1 118/24/118 2/12/2
f 1/8/1 119/16/119 118/24/118
f 2/26/2 3/3/3 1/32/1
f 2/26/2 5/30/5 3/3/3
f 2/12/2 118/24/118 5/9/5
f 3/3/3 4/7/4 1/32/1
f 3/12/3 129/16/129 4/4/4
f 3/12/3 130/24/130 129/16/129
f 3/12/3 131/17/131 130/24/130
f 5/30/5 6/10/6 3/3/3
f 5/30/5 8/6/8 6/10/6
f 5/9/5 124/22/124 7/15/7
f 6/9/6 131/17/131 3/12/3
f 7/20/7 8/6/8 5/30/5
f 7/20/7 9/21/9 8/6/8
f 7/15/7 124/22/124 9/14/9
f 8/15/8 131/17/131 6/9/6
f 8/15/8 132/22/132 131/17/131
f 8/15/8 133/19/133 132/22/132
f 9/21/9 10/11/10 8/6/8
f 9/21/9 12/5/12 10/11/10
f 9/14/9 128/23/128 11/18/11
f 10/14/10 133/19/133 8/15/8
f 11/13/11 12/5/12 9/21/9
f 11/18/11 134/23/134 12/18/12
f 12/18/12 133/19/133 10/14/10
f 12/18/12 134/23/134 133/19/133
f 117/33/117 120/31/120 118/24/118
f 117/33/117 129/16/129 120/31/120
f 118/24/118 119/16/119 117/33/117
f 118/24/118 122/17/122 5/9/5
f 120/31/120 121/28/121 118/24/118
f 120/31/120 131/17/131 121/28/121
f 121/28/121 122/17/122 118/24/118
f 121/28/121 124/22/124 122/17/122
f 121/28/121 131/17/131 123/29/123
f 122/17/122 124/22/124 5/9/5
f 123/29/123 124/22/124 121/28/121
f 123/29/123 125/25/125 124/22/124
f 123/29/123 133/19/133 125/25/125
f 124/22/124 126/19/126 9/14/9
f 125/25/125 126/19/126 124/22/124
f 125/25/125 128/23/128 126/19/126
f 125/25/125 133/19/133 127/27/127
f 126/19/126 128/23/128 9/14/9
f 127/27/127 128/23/128 125/25/125
f 127/27/127 134/23/134 128/23/128
f 128/23/128 134/23/134 11/18/11
f 129/16/129 130/24/130 120/31/120
f 130/24/130 131/17/131 120/31/120
f 131/17/131 132/22/132 123/29/123
f 132/22/132 133/19/133 123/29/123
f 133/19/133 134/23/134 127/27/127
g unnamed_object1_tree5
usemtl tree5
s 1
f 14/1/14 15/35/15 13/34/13
f 14/1/14 16/2/16 15/35/15
f 18/1/18 19/35/19 17/34/17
f 18/1/18 20/2/20 19/35/19
f 22/1/22 23/35/23 21/34/21
f 22/1/22 24/2/24 23/35/23
f 26/1/26 27/35/27 25/34/25
f 26/1/26 28/2/28 27/35/27
f 30/1/30 31/35/31 29/34/29
f 30/1/30 32/2/32 31/35/31
f 34/1/34 35/35/35 33/34/33
f 34/1/34 36/2/36 35/35/35
f 38/1/38 39/35/39 37/34/37
f 38/1/38 40/2/40 39/35/39
f 42/1/42 43/35/43 41/34/41
f 42/1/42 44/2/44 43/35/43
f 46/1/46 47/35/47 45/34/45
f 46/1/46 48/2/48 47/35/47
f 50/1/50 51/35/51 49/34/49
f 50/1/50 52/2/52 51/35/51
f 54/1/54 55/35/55 53/34/53
f 54/1/54 56/2/56 55/35/55
f 58/1/58 59/35/59 57/34/57
f 58/1/58 60/2/60 59/35/59
f 62/1/62 63/35/63 61/34/61
f 62/1/62 64/2/64 63/35/63
f 66/1/66 67/35/67 65/34/65
f 66/1/66 68/2/68 67/35/67
f 70/1/70 71/35/71 69/34/69
f 70/1/70 72/2/72 71/35/71
f 74/1/74 75/35/75 73/34/73
f 74/1/74 76/2/76 75/35/75
f 78/1/78 79/35/79 77/34/77
f 78/1/78 80/2/80 79/35/79
f 82/1/82 83/35/83 81/34/81
f 82/1/82 84/2/84 83/35/83
f 86/1/86 87/35/87 85/34/85
f 86/1/86 88/2/88 87/35/87
f 90/1/90 91/35/91 89/34/89
f 90/1/90 92/2/92 91/35/91
f 94/1/94 95/35/95 93/34/93
f 94/1/94 96/2/96 95/35/95
f 98/1/98 99/35/99 97/34/97
f 98/1/98 100/2/100 99/35/99
f 102/1/102 103/35/103 101/34/101
f 102/1/102 104/2/104 103/35/103
f 106/1/106 107/35/107 105/34/105
f 106/1/106 108/2/108 107/35/107
f 110/1/110 111/35/111 109/34/109
f 110/1/110 112/2/112 111/35/111
f 114/1/114 115/35/115 113/34/113
f 114/1/114 116/2/116 115/35/115
