# Exported from Wings 3D 1.2.rc2
mtllib tree1_small.mtl
o unnamed_object1
#117 vertices, 89 faces
v 4.0625000e-2 -2.6560000e-3 3.8906000e-2
v 4.6563000e-2 0.34640600 4.3125000e-2
v -3.2344000e-2 -2.6560000e-3 3.8906000e-2
v 1.2500000e-3 0.34640600 4.3125000e-2
v 2.6406000e-2 0.61546900 2.0625000e-2
v -1.8125000e-2 0.61546900 2.0625000e-2
v 3.1875000e-2 0.95468700 2.4531000e-2
v -3.5940000e-3 0.95468700 2.4531000e-2
v -9.3700000e-4 1.30390600 -7.3440000e-3
v -1.9219000e-2 1.30390600 -7.3440000e-3
v 4.0781000e-2 1.43000000 0.40906200
v -4.8440000e-3 1.95828100 1.5000000e-2
v -4.8440000e-3 1.25828100 -2.0000000e-2
v -0.46718700 1.50328100 -3.0781000e-2
v 1.1250000e-2 0.86828100 -0.48515600
v -0.50078100 0.95828100 -0.38500000
v 4.6900000e-4 0.60828100 -9.3750000e-3
v -0.44375000 0.73328100 0.17046900
v -0.44375000 0.84328100 -1.1563000e-2
v -0.25859400 0.98328100 0.54046900
v 6.8750000e-3 0.67828100 -9.3800000e-4
v 0.20187500 0.85828100 0.44343700
v 1.1875000e-2 0.80828100 0.48140600
v 0.55890600 0.90328100 0.38140600
v 2.2500000e-2 0.57328100 5.7810000e-3
v 0.46687500 0.80828100 -0.17421900
v 0.49125000 0.87328100 8.5940000e-3
v 0.35609400 0.96828100 -0.44343800
v 5.4690000e-3 0.67828100 -1.8750000e-3
v -0.17437500 0.94828100 -0.44640600
v 0.25359400 0.85828100 0.37312500
v 0.62734400 1.08328100 5.7969000e-2
v 2.5000000e-2 0.70828100 9.3700000e-4
v 0.31984400 0.94328100 -0.37718800
v 0.44250000 1.08328100 -0.23187500
v 7.2344000e-2 1.13328100 -0.58062500
v 1.5156000e-2 0.77828100 -3.1250000e-3
v -0.37281200 0.91828100 -0.29812500
v -0.23015600 0.90828100 -0.41859400
v -0.65390600 1.00328100 -5.8281000e-2
v -1.5620000e-3 0.67328100 -1.2500000e-3
v -0.29640600 0.99328100 0.37671900
v -0.40031200 1.00328100 0.22546900
v -4.0000000e-2 1.13328100 0.61421900
v 1.6875000e-2 0.77828100 -2.9690000e-3
v 0.39500000 0.96828100 0.29171900
v 0.44109400 1.04328100 0.20468700
v 0.53156300 1.23328100 -0.33328100
v 9.5310000e-3 0.85328100 -5.7810000e-3
v 3.4063000e-2 1.08828100 -0.48468800
v 0.20968800 1.15828100 -0.43031300
v -0.32828100 1.25328100 -0.57078100
v -7.8100000e-4 0.92328100 -3.7500000e-3
v -0.46968700 1.09328100 -2.8281000e-2
v -0.44015600 0.97328100 -0.20312500
v -0.53078100 1.24828100 0.30484400
v -1.3594000e-2 0.81828100 7.5000000e-3
v -3.8125000e-2 1.05828100 0.48640600
v -0.21000000 1.15828100 0.42203100
v 0.32796900 1.23828100 0.56250000
v 6.2500000e-4 0.92328100 -4.3750000e-3
v 0.47453100 1.10828100 2.0000000e-2
v -8.5000000e-2 1.32828100 0.47000000
v 0.42500000 1.51328100 0.47000000
v 1.0000000e-2 1.15328100 1.0000000e-2
v 0.47000000 1.38328100 -9.0000000e-2
v 0.46000000 1.43828100 0.13000000
v 0.44000000 1.57828100 -0.50000000
v 0.0000000e+0 1.22328100 0.0000000e+0
v -2.0000000e-2 1.40828100 -0.48000000
v 8.0000000e-2 1.35328100 -0.48000000
v -0.48000000 1.44328100 -0.47000000
v -1.0000000e-2 1.11328100 -1.0000000e-2
v -0.48000000 1.35328100 9.0000000e-2
v -0.45000000 1.39328100 -9.0000000e-2
v -0.46000000 1.55328100 0.46000000
v 0.0000000e+0 1.22328100 0.0000000e+0
v 0.10000000 1.45328100 0.47000000
v 0.49171900 1.15328100 -0.12750000
v 0.18515600 1.41328100 -0.59796900
v 5.6250000e-3 0.97828100 -1.1406000e-2
v -0.26812500 1.20828100 -0.39421900
v -0.11359400 1.28328100 -0.46546900
v -0.61609400 1.37828100 -0.22718800
v -7.8100000e-4 1.04828100 -3.1250000e-3
v -0.37578100 1.21828100 0.27921900
v -0.46062500 1.11828100 0.12640600
v -0.19828100 1.41828100 0.57375000
v -3.2810000e-3 0.94328100 1.3594000e-2
v 0.27546900 1.18828100 0.39625000
v 0.11250000 1.28328100 0.45734400
v 0.61515600 1.36328100 0.21906200
v -1.5600000e-4 1.04828100 -4.6880000e-3
v 0.37859400 1.23328100 -0.29046900
v -2.0310000e-3 1.42328100 -0.42843800
v 0.44359400 1.80828100 4.2656000e-2
v -3.1250000e-3 1.23828100 -6.2500000e-3
v 7.3750000e-2 1.51656200 0.30203100
v -0.43468700 1.47656200 -0.20781300
v -0.10671900 1.96156200 -0.15312500
v -1.5600000e-4 1.29156200 -6.2500000e-3
v 6.8125000e-2 1.56000000 -0.42421900
v 4.0620000e-3 -2.6560000e-3 -7.3125000e-2
v 2.3906000e-2 0.34640600 -2.6250000e-2
v 6.3125000e-2 -2.6560000e-3 -3.0312000e-2
v 6.0469000e-2 0.34640600 1.5600000e-4
v 4.0620000e-3 0.61546900 -4.7969000e-2
v 4.0156000e-2 0.61546900 -2.1719000e-2
v 1.4062000e-2 0.95468700 -3.0313000e-2
v 4.2969000e-2 0.95468700 -9.3750000e-3
v -1.0000000e-2 1.31859400 -3.5469000e-2
v 4.5310000e-3 1.31234400 -2.4688000e-2
v -1.7969000e-2 0.34640600 1.5600000e-4
v -5.4844000e-2 -2.6560000e-3 -3.0312000e-2
v -3.1875000e-2 0.61546900 -2.1719000e-2
v -1.4687000e-2 0.95468700 -9.3750000e-3
v -2.4844000e-2 1.31234400 -2.4688000e-2
vt -1.5370000e-3 0.99891000
vt 2.0500000e-4 -1.0880000e-3
vt 0.26953100 -0.79124300
vt 0.31570300 1.00000000
vt 0.32074000 5.6399000e-2
vt 0.35927700 -0.32028400
vt 0.38684300 -0.31258800
vt 0.38707800 0.52134500
vt 0.39319800 -0.79444800
vt 0.39960400 1.00000000
vt 0.42493000 0.50582400
vt 0.43553900 4.5240000e-2
vt 0.50556300 -0.32028400
vt 0.51308200 0.97998700
vt 0.51855300 0.50582400
vt 0.52557700 5.6399000e-2
vt 0.55094700 0.52134500
vt 0.55256800 4.5240000e-2
vt 0.56101600 0.99142300
vt 0.56874100 -0.79444800
vt 0.57641500 0.50582400
vt 0.57678600 -0.79124300
vt 0.59064200 1.00000000
vt 0.59597200 -0.32028400
vt 0.62489500 4.5240000e-2
vt 0.64288900 -0.31258800
vt 0.67723200 -0.79444800
vt 0.99846200 1.00065200
vt 1.00020400 6.5300000e-4
vn 0.58758224 -1.9772730e-2 0.80892283
vn 0.58721666 4.5790564e-2 0.80813354
vn -0.56433831 4.0012399e-2 0.82457339
vn -0.54351080 3.6482301e-2 0.83860900
vn 0.58703512 4.6266436e-2 0.80823832
vn -0.57668190 2.4832437e-2 0.81659129
vn 0.58129542 5.4627195e-2 0.81185683
vn -0.58717050 3.1627986e-2 0.80884515
vn 0.29619299 0.64055436 0.70849123
vn -0.50894883 0.28148666 0.81347178
vn -0.99415003 -5.3936598e-3 0.10787320
vn -0.68612129 -3.6328975e-2 0.72657951
vn -0.68612129 -3.6328975e-2 0.72657951
vn -4.9690057e-2 -4.9875928e-2 0.99751857
vn 0.24113902 0.84931590 0.46958969
vn 0.30875599 0.86549901 0.39443783
vn 0.30875599 0.86549901 0.39443783
vn 0.37313666 0.87261017 0.31515158
vn 0.33094607 0.88227759 -0.33475507
vn 0.24261721 0.89126324 -0.38312756
vn 0.24261721 0.89126324 -0.38312756
vn 0.15180816 0.89113785 -0.42758347
vn -0.23068916 0.87029943 -0.43515677
vn -0.36861761 0.89301754 -0.25814866
vn -0.36861761 0.89301754 -0.25814866
vn -0.48779365 0.87030585 -6.8007951e-2
vn -0.36150556 0.88479100 0.29403846
vn -0.20238941 0.88455821 0.42023243
vn -0.20238941 0.88455821 0.42023243
vn -3.4926125e-2 0.84784365 0.52909480
vn -0.52715026 0.84956797 -1.8624482e-2
vn -0.53099856 0.84623196 4.3954433e-2
vn -0.53099856 0.84623196 4.3954433e-2
vn -0.53275363 0.83956007 0.10636008
vn -0.33220565 0.81785065 0.46985074
vn -0.21005237 0.84204857 0.49682211
vn -0.21005237 0.84204857 0.49682211
vn -8.4489010e-2 0.85257632 0.51572786
vn 0.41740381 0.87030418 0.26142817
vn 0.45410778 0.88977036 -4.5769240e-2
vn 0.45410778 0.88977036 -4.5769240e-2
vn 0.44717365 0.82373285 -0.34856839
vn 0.20246466 0.85683079 -0.47418251
vn 7.9991916e-2 0.86722574 -0.49144766
vn 7.9991916e-2 0.86722574 -0.49144766
vn -4.3713162e-2 0.86426046 -0.50114171
vn -0.48065885 0.84910616 0.21905661
vn -0.42558239 0.85065661 0.30864698
vn -0.42558239 0.85065661 0.30864698
vn -0.36579803 0.84279688 0.39482302
vn 2.5242521e-2 0.87028210 0.49190638
vn 0.16698516 0.89103021 0.42211507
vn 0.16698516 0.89103021 0.42211507
vn 0.30448767 0.88915302 0.34160528
vn 0.46893977 0.80904024 -0.35432949
vn 0.46032371 0.80798236 -0.36778605
vn 0.46032371 0.80798236 -0.36778605
vn 0.45158961 0.80671730 -0.38114830
vn -3.7242367e-3 0.87501729 -0.48407734
vn -0.17133825 0.89986888 -0.40109750
vn -0.17133825 0.89986888 -0.40109750
vn -0.33285302 0.89268719 -0.30383952
vn -0.31348955 0.86421444 -0.39351964
vn -0.39684762 0.86165889 -0.31631618
vn -0.39684762 0.86165889 -0.31631618
vn -0.47508021 0.84797461 -0.23502734
vn -0.46157200 0.86276263 0.20637811
vn -0.38834949 0.87752851 0.28129769
vn -0.38834949 0.87752851 0.28129769
vn -0.31078037 0.88247264 0.35306884
vn 0.14809313 0.86901182 0.47210897
vn 0.31968737 0.89378615 0.31455731
vn 0.31968737 0.89378615 0.31455731
vn 0.47373689 0.86950871 0.13974247
vn 0.38563501 0.88778254 -0.25125247
vn 0.27805521 0.89029619 -0.36063554
vn 0.27805521 0.89029619 -0.36063554
vn 0.16392877 0.87184837 -0.46152766
vn -0.16094921 0.81568462 0.55565632
vn -0.13665212 0.81524302 0.56276550
vn -0.13665212 0.81524302 0.56276550
vn -0.11226743 0.81427878 0.56951391
vn 0.33549145 0.87033168 0.36051111
vn 0.39921606 0.89104535 0.21602021
vn 0.39921606 0.89104535 0.21602021
vn 0.45281354 0.88915542 6.6049417e-2
vn 0.14785269 0.77911187 -0.60919970
vn 0.14909953 0.77917301 -0.60881750
vn 0.14909953 0.77917301 -0.60881750
vn 0.15034611 0.77923283 -0.60843426
vn -0.31394835 0.87501050 -0.36850110
vn -0.38900270 0.89989661 -0.19713700
vn -0.38900270 0.89989661 -0.19713700
vn -0.45020150 0.89273008 -1.8751252e-2
vn 0.77180852 -0.58312763 -0.25352273
vn 0.78362660 -0.61882733 5.4608583e-2
vn 0.78362660 -0.61882733 5.4608583e-2
vn 0.71993516 -0.59489742 0.35747786
vn 0.36552231 -0.14347264 -0.91967877
vn -0.41127668 -0.25711701 -0.87449547
vn -0.41127668 -0.25711701 -0.87449547
vn -0.93375317 -0.21176711 -0.28854757
vn -0.20800311 0.13819539 -0.96831645
vn 0.25278130 2.7951922e-2 -0.96711959
vn 0.95041014 3.4230282e-2 -0.30910977
vn 0.94956181 4.0267658e-2 -0.31098373
vn -0.22349656 -1.6264010e-2 -0.97456902
vn 0.95041111 2.4864002e-2 -0.31000080
vn 0.23849668 2.3139813e-2 -0.97086759
vn 0.94980142 4.5972250e-2 -0.30945729
vn -0.25898366 0.36824304 -0.89293030
vn 0.83036316 0.55721881 -2.0566679e-3
vn -0.95445452 2.7531010e-2 -0.29708351
vn -0.94415516 0.12630455 -0.30433239
vn -0.95169616 -7.3106594e-3 -0.30695435
vn -0.95052272 9.6975367e-3 -0.31050365
vn -0.48691821 0.82915066 0.27462673
g unnamed_object1_stamm
usemtl stamm
s 1
f 1/9/1 105/20/105 2/6/2
f 2/26/2 3/3/3 1/22/1
f 2/26/2 4/7/4 3/3/3
f 2/26/2 6/5/6 4/7/4
f 2/6/2 108/18/108 5/12/5
f 4/6/4 113/13/113 3/9/3
f 5/16/5 6/5/6 2/26/2
f 5/16/5 7/17/7 6/5/6
f 5/12/5 108/18/108 7/11/7
f 6/12/6 113/13/113 4/6/4
f 6/12/6 115/18/115 113/13/113
f 6/12/6 116/15/116 115/18/115
f 7/17/7 8/8/8 6/5/6
f 7/17/7 10/4/10 8/8/8
f 7/11/7 112/19/112 9/14/9
f 8/11/8 116/15/116 6/12/6
f 9/10/9 10/4/10 7/17/7
f 9/14/9 117/19/117 10/14/10
f 10/14/10 116/15/116 8/11/8
f 10/14/10 117/19/117 116/15/116
f 103/27/103 113/13/113 104/24/104
f 103/27/103 114/20/114 113/13/113
f 104/24/104 105/20/105 103/27/103
f 104/24/104 106/13/106 105/20/105
f 104/24/104 108/18/108 106/13/106
f 104/24/104 113/13/113 107/25/107
f 105/20/105 106/13/106 2/6/2
f 106/13/106 108/18/108 2/6/2
f 107/25/107 108/18/108 104/24/104
f 107/25/107 109/21/109 108/18/108
f 107/25/107 116/15/116 109/21/109
f 108/18/108 110/15/110 7/11/7
f 109/21/109 110/15/110 108/18/108
f 109/21/109 112/19/112 110/15/110
f 109/21/109 116/15/116 111/23/111
f 110/15/110 112/19/112 7/11/7
f 111/23/111 112/19/112 109/21/109
f 111/23/111 117/19/117 112/19/112
f 112/19/112 117/19/117 9/14/9
f 113/13/113 114/20/114 3/9/3
f 113/13/113 115/18/115 107/25/107
f 115/18/115 116/15/116 107/25/107
f 116/15/116 117/19/117 111/23/111
g unnamed_object1_tree4
usemtl tree4
s 1
f 12/1/12 13/29/13 11/28/11
f 12/1/12 14/2/14 13/29/13
f 16/1/16 17/29/17 15/28/15
f 16/1/16 18/2/18 17/29/17
f 20/1/20 21/29/21 19/28/19
f 20/1/20 22/2/22 21/29/21
f 24/1/24 25/29/25 23/28/23
f 24/1/24 26/2/26 25/29/25
f 28/1/28 29/29/29 27/28/27
f 28/1/28 30/2/30 29/29/29
f 32/1/32 33/29/33 31/28/31
f 32/1/32 34/2/34 33/29/33
f 36/1/36 37/29/37 35/28/35
f 36/1/36 38/2/38 37/29/37
f 40/1/40 41/29/41 39/28/39
f 40/1/40 42/2/42 41/29/41
f 44/1/44 45/29/45 43/28/43
f 44/1/44 46/2/46 45/29/45
f 48/1/48 49/29/49 47/28/47
f 48/1/48 50/2/50 49/29/49
f 52/1/52 53/29/53 51/28/51
f 52/1/52 54/2/54 53/29/53
f 56/1/56 57/29/57 55/28/55
f 56/1/56 58/2/58 57/29/57
f 60/1/60 61/29/61 59/28/59
f 60/1/60 62/2/62 61/29/61
f 64/1/64 65/29/65 63/28/63
f 64/1/64 66/2/66 65/29/65
f 68/1/68 69/29/69 67/28/67
f 68/1/68 70/2/70 69/29/69
f 72/1/72 73/29/73 71/28/71
f 72/1/72 74/2/74 73/29/73
f 76/1/76 77/29/77 75/28/75
f 76/1/76 78/2/78 77/29/77
f 80/1/80 81/29/81 79/28/79
f 80/1/80 82/2/82 81/29/81
f 84/1/84 85/29/85 83/28/83
f 84/1/84 86/2/86 85/29/85
f 88/1/88 89/29/89 87/28/87
f 88/1/88 90/2/90 89/29/89
f 92/1/92 93/29/93 91/28/91
f 92/1/92 94/2/94 93/29/93
f 96/1/96 97/29/97 95/28/95
f 96/1/96 98/2/98 97/29/97
f 100/1/100 101/29/101 99/28/99
f 100/1/100 102/2/102 101/29/101
